<mxfile host="app.diagrams.net" agent="Mozilla/5.0 (Windows NT 10.0; Win64; x64) AppleWebKit/537.36 (KHTML, like Gecko) Chrome/133.0.0.0 Safari/537.36" version="26.0.11" pages="2">
  <diagram id="vZv2f6N4h2fVlUgS8-mH" name="Page-1">
    <mxGraphModel dx="1303" dy="1513" grid="1" gridSize="10" guides="1" tooltips="1" connect="1" arrows="1" fold="1" page="1" pageScale="1" pageWidth="827" pageHeight="1169" math="0" shadow="0">
      <root>
        <mxCell id="0" />
        <mxCell id="1" parent="0" />
        <mxCell id="KlxbK8RUg1pbJQgt3YLl-1" value="Assignment" style="swimlane;fontStyle=1;align=center;verticalAlign=top;childLayout=stackLayout;horizontal=1;startSize=26;horizontalStack=0;resizeParent=1;resizeParentMax=0;resizeLast=0;collapsible=1;marginBottom=0;" parent="1" vertex="1">
          <mxGeometry x="50" y="430" width="167" height="34" as="geometry" />
        </mxCell>
        <mxCell id="KlxbK8RUg1pbJQgt3YLl-3" value="" style="line;strokeWidth=1;fillColor=none;align=left;verticalAlign=middle;spacingTop=-1;spacingLeft=3;spacingRight=3;rotatable=0;labelPosition=right;points=[];portConstraint=eastwest;" parent="KlxbK8RUg1pbJQgt3YLl-1" vertex="1">
          <mxGeometry y="26" width="167" height="8" as="geometry" />
        </mxCell>
        <mxCell id="KlxbK8RUg1pbJQgt3YLl-9" value="" style="group" parent="1" vertex="1" connectable="0">
          <mxGeometry x="353.5" y="720" width="180" height="120" as="geometry" />
        </mxCell>
        <mxCell id="KlxbK8RUg1pbJQgt3YLl-10" value="+ method(type): type" style="text;strokeColor=none;fillColor=none;align=left;verticalAlign=top;spacingLeft=4;spacingRight=4;overflow=hidden;rotatable=0;points=[[0,0.5],[1,0.5]];portConstraint=eastwest;" parent="KlxbK8RUg1pbJQgt3YLl-9" vertex="1">
          <mxGeometry y="60" width="180" height="50" as="geometry" />
        </mxCell>
        <mxCell id="KlxbK8RUg1pbJQgt3YLl-11" value="«interface»&lt;br&gt;&lt;b&gt;Expression&lt;br&gt;&lt;br&gt;&lt;br&gt;&lt;br&gt;&lt;br&gt;&lt;/b&gt;" style="html=1;" parent="KlxbK8RUg1pbJQgt3YLl-9" vertex="1">
          <mxGeometry width="180" height="120" as="geometry" />
        </mxCell>
        <mxCell id="KlxbK8RUg1pbJQgt3YLl-12" value="" style="line;strokeWidth=1;fillColor=none;align=left;verticalAlign=middle;spacingTop=-1;spacingLeft=3;spacingRight=3;rotatable=0;labelPosition=right;points=[];portConstraint=eastwest;" parent="KlxbK8RUg1pbJQgt3YLl-9" vertex="1">
          <mxGeometry y="50" width="180" height="8" as="geometry" />
        </mxCell>
        <mxCell id="KlxbK8RUg1pbJQgt3YLl-14" value="2" style="endArrow=open;html=1;endSize=12;startArrow=diamondThin;startSize=14;startFill=0;edgeStyle=orthogonalEdgeStyle;align=left;verticalAlign=bottom;" parent="1" source="KlxbK8RUg1pbJQgt3YLl-1" target="KlxbK8RUg1pbJQgt3YLl-11" edge="1">
          <mxGeometry x="0.6748" y="10" relative="1" as="geometry">
            <mxPoint x="610" y="592.5" as="sourcePoint" />
            <mxPoint x="770" y="592.5" as="targetPoint" />
            <mxPoint as="offset" />
            <Array as="points">
              <mxPoint x="134" y="780" />
            </Array>
          </mxGeometry>
        </mxCell>
        <mxCell id="KlxbK8RUg1pbJQgt3YLl-15" value="" style="group" parent="1" vertex="1" connectable="0">
          <mxGeometry x="347" y="210" width="180" height="120" as="geometry" />
        </mxCell>
        <mxCell id="KlxbK8RUg1pbJQgt3YLl-16" value="+ method(type): type" style="text;strokeColor=none;fillColor=none;align=left;verticalAlign=top;spacingLeft=4;spacingRight=4;overflow=hidden;rotatable=0;points=[[0,0.5],[1,0.5]];portConstraint=eastwest;" parent="KlxbK8RUg1pbJQgt3YLl-15" vertex="1">
          <mxGeometry y="60" width="180" height="50" as="geometry" />
        </mxCell>
        <mxCell id="KlxbK8RUg1pbJQgt3YLl-17" value="«interface»&lt;br&gt;&lt;b&gt;Statement&lt;br&gt;&lt;br&gt;&lt;br&gt;&lt;br&gt;&lt;br&gt;&lt;br&gt;&lt;/b&gt;" style="html=1;" parent="KlxbK8RUg1pbJQgt3YLl-15" vertex="1">
          <mxGeometry width="180" height="120" as="geometry" />
        </mxCell>
        <mxCell id="KlxbK8RUg1pbJQgt3YLl-18" value="" style="line;strokeWidth=1;fillColor=none;align=left;verticalAlign=middle;spacingTop=-1;spacingLeft=3;spacingRight=3;rotatable=0;labelPosition=right;points=[];portConstraint=eastwest;" parent="KlxbK8RUg1pbJQgt3YLl-15" vertex="1">
          <mxGeometry y="50" width="180" height="8" as="geometry" />
        </mxCell>
        <mxCell id="KlxbK8RUg1pbJQgt3YLl-20" value="" style="endArrow=block;dashed=1;endFill=0;endSize=12;html=1;" parent="1" source="KlxbK8RUg1pbJQgt3YLl-1" target="KlxbK8RUg1pbJQgt3YLl-17" edge="1">
          <mxGeometry width="160" relative="1" as="geometry">
            <mxPoint x="100" y="340" as="sourcePoint" />
            <mxPoint x="260" y="340" as="targetPoint" />
            <Array as="points">
              <mxPoint x="150" y="420" />
            </Array>
          </mxGeometry>
        </mxCell>
        <mxCell id="KlxbK8RUg1pbJQgt3YLl-21" value="" style="group" parent="1" vertex="1" connectable="0">
          <mxGeometry x="90" y="210" width="180" height="120" as="geometry" />
        </mxCell>
        <mxCell id="KlxbK8RUg1pbJQgt3YLl-22" value="+ method(type): type" style="text;strokeColor=none;fillColor=none;align=left;verticalAlign=top;spacingLeft=4;spacingRight=4;overflow=hidden;rotatable=0;points=[[0,0.5],[1,0.5]];portConstraint=eastwest;" parent="KlxbK8RUg1pbJQgt3YLl-21" vertex="1">
          <mxGeometry y="60" width="180" height="50" as="geometry" />
        </mxCell>
        <mxCell id="KlxbK8RUg1pbJQgt3YLl-23" value="«interface»&lt;br&gt;&lt;b&gt;Locatable&lt;br&gt;&lt;br&gt;&lt;br&gt;&lt;br&gt;&lt;br&gt;&lt;br&gt;&lt;/b&gt;" style="html=1;" parent="KlxbK8RUg1pbJQgt3YLl-21" vertex="1">
          <mxGeometry width="180" height="120" as="geometry" />
        </mxCell>
        <mxCell id="KlxbK8RUg1pbJQgt3YLl-24" value="" style="line;strokeWidth=1;fillColor=none;align=left;verticalAlign=middle;spacingTop=-1;spacingLeft=3;spacingRight=3;rotatable=0;labelPosition=right;points=[];portConstraint=eastwest;" parent="KlxbK8RUg1pbJQgt3YLl-21" vertex="1">
          <mxGeometry y="50" width="180" height="8" as="geometry" />
        </mxCell>
        <mxCell id="KlxbK8RUg1pbJQgt3YLl-25" value="+ getLine(): int&#xa;+ getColumn(): int" style="text;strokeColor=none;fillColor=none;align=left;verticalAlign=top;spacingLeft=4;spacingRight=4;overflow=hidden;rotatable=0;points=[[0,0.5],[1,0.5]];portConstraint=eastwest;" parent="KlxbK8RUg1pbJQgt3YLl-21" vertex="1">
          <mxGeometry y="60" width="180" height="40" as="geometry" />
        </mxCell>
        <mxCell id="KlxbK8RUg1pbJQgt3YLl-27" value="" style="endArrow=block;endSize=16;endFill=0;html=1;" parent="1" source="KlxbK8RUg1pbJQgt3YLl-17" target="KlxbK8RUg1pbJQgt3YLl-23" edge="1">
          <mxGeometry width="160" relative="1" as="geometry">
            <mxPoint x="190" y="470" as="sourcePoint" />
            <mxPoint x="350" y="470" as="targetPoint" />
          </mxGeometry>
        </mxCell>
        <mxCell id="Yj_IBcFeHuNmgm66MgI8-1" value="IfStatement" style="swimlane;fontStyle=1;align=center;verticalAlign=top;childLayout=stackLayout;horizontal=1;startSize=26;horizontalStack=0;resizeParent=1;resizeParentMax=0;resizeLast=0;collapsible=1;marginBottom=0;" parent="1" vertex="1">
          <mxGeometry x="780" y="440" width="167" height="34" as="geometry" />
        </mxCell>
        <mxCell id="Yj_IBcFeHuNmgm66MgI8-3" value="" style="line;strokeWidth=1;fillColor=none;align=left;verticalAlign=middle;spacingTop=-1;spacingLeft=3;spacingRight=3;rotatable=0;labelPosition=right;points=[];portConstraint=eastwest;" parent="Yj_IBcFeHuNmgm66MgI8-1" vertex="1">
          <mxGeometry y="26" width="167" height="8" as="geometry" />
        </mxCell>
        <mxCell id="Yj_IBcFeHuNmgm66MgI8-6" value="" style="group" parent="1" vertex="1" connectable="0">
          <mxGeometry x="340" y="30" width="180" height="120" as="geometry" />
        </mxCell>
        <mxCell id="Yj_IBcFeHuNmgm66MgI8-7" value="+ method(type): type" style="text;strokeColor=none;fillColor=none;align=left;verticalAlign=top;spacingLeft=4;spacingRight=4;overflow=hidden;rotatable=0;points=[[0,0.5],[1,0.5]];portConstraint=eastwest;" parent="Yj_IBcFeHuNmgm66MgI8-6" vertex="1">
          <mxGeometry y="60" width="180" height="50" as="geometry" />
        </mxCell>
        <mxCell id="Yj_IBcFeHuNmgm66MgI8-8" value="«interface»&lt;br&gt;&lt;b&gt;ASTNode&lt;br&gt;&lt;br&gt;&lt;br&gt;&lt;br&gt;&lt;br&gt;&lt;br&gt;&lt;/b&gt;" style="html=1;" parent="Yj_IBcFeHuNmgm66MgI8-6" vertex="1">
          <mxGeometry width="180" height="120" as="geometry" />
        </mxCell>
        <mxCell id="Yj_IBcFeHuNmgm66MgI8-9" value="" style="line;strokeWidth=1;fillColor=none;align=left;verticalAlign=middle;spacingTop=-1;spacingLeft=3;spacingRight=3;rotatable=0;labelPosition=right;points=[];portConstraint=eastwest;" parent="Yj_IBcFeHuNmgm66MgI8-6" vertex="1">
          <mxGeometry y="50" width="180" height="8" as="geometry" />
        </mxCell>
        <mxCell id="Yj_IBcFeHuNmgm66MgI8-10" value="" style="endArrow=block;endSize=16;endFill=0;html=1;" parent="1" source="KlxbK8RUg1pbJQgt3YLl-23" target="Yj_IBcFeHuNmgm66MgI8-8" edge="1">
          <mxGeometry width="160" relative="1" as="geometry">
            <mxPoint x="380" y="264" as="sourcePoint" />
            <mxPoint x="220" y="255" as="targetPoint" />
            <Array as="points">
              <mxPoint x="170" y="90" />
            </Array>
          </mxGeometry>
        </mxCell>
        <mxCell id="Yj_IBcFeHuNmgm66MgI8-17" value="*" style="endArrow=open;html=1;endSize=12;startArrow=diamondThin;startSize=14;startFill=0;edgeStyle=orthogonalEdgeStyle;align=left;verticalAlign=bottom;" parent="1" source="Yj_IBcFeHuNmgm66MgI8-22" target="KlxbK8RUg1pbJQgt3YLl-17" edge="1">
          <mxGeometry x="0.91" relative="1" as="geometry">
            <mxPoint x="660" y="73.99999999999989" as="sourcePoint" />
            <mxPoint x="740" y="209.13" as="targetPoint" />
            <mxPoint as="offset" />
            <Array as="points">
              <mxPoint x="1070" y="230" />
            </Array>
          </mxGeometry>
        </mxCell>
        <mxCell id="Yj_IBcFeHuNmgm66MgI8-18" value="" style="endArrow=block;dashed=1;endFill=0;endSize=12;html=1;" parent="1" source="Yj_IBcFeHuNmgm66MgI8-1" target="KlxbK8RUg1pbJQgt3YLl-17" edge="1">
          <mxGeometry width="160" relative="1" as="geometry">
            <mxPoint x="570" y="390" as="sourcePoint" />
            <mxPoint x="730" y="390" as="targetPoint" />
          </mxGeometry>
        </mxCell>
        <mxCell id="Yj_IBcFeHuNmgm66MgI8-19" value="1" style="endArrow=open;html=1;endSize=12;startArrow=diamondThin;startSize=14;startFill=0;edgeStyle=orthogonalEdgeStyle;align=left;verticalAlign=bottom;" parent="1" source="Yj_IBcFeHuNmgm66MgI8-1" target="KlxbK8RUg1pbJQgt3YLl-11" edge="1">
          <mxGeometry x="0.9135" relative="1" as="geometry">
            <mxPoint x="367" y="610" as="sourcePoint" />
            <mxPoint x="527" y="610" as="targetPoint" />
            <mxPoint as="offset" />
            <Array as="points">
              <mxPoint x="840" y="780" />
            </Array>
          </mxGeometry>
        </mxCell>
        <mxCell id="Yj_IBcFeHuNmgm66MgI8-22" value="WhileStatement" style="swimlane;fontStyle=1;align=center;verticalAlign=top;childLayout=stackLayout;horizontal=1;startSize=26;horizontalStack=0;resizeParent=1;resizeParentMax=0;resizeLast=0;collapsible=1;marginBottom=0;" parent="1" vertex="1">
          <mxGeometry x="977" y="440" width="167" height="34" as="geometry" />
        </mxCell>
        <mxCell id="Yj_IBcFeHuNmgm66MgI8-24" value="" style="line;strokeWidth=1;fillColor=none;align=left;verticalAlign=middle;spacingTop=-1;spacingLeft=3;spacingRight=3;rotatable=0;labelPosition=right;points=[];portConstraint=eastwest;" parent="Yj_IBcFeHuNmgm66MgI8-22" vertex="1">
          <mxGeometry y="26" width="167" height="8" as="geometry" />
        </mxCell>
        <mxCell id="Yj_IBcFeHuNmgm66MgI8-27" value="" style="endArrow=block;dashed=1;endFill=0;endSize=12;html=1;" parent="1" source="Yj_IBcFeHuNmgm66MgI8-22" target="KlxbK8RUg1pbJQgt3YLl-17" edge="1">
          <mxGeometry width="160" relative="1" as="geometry">
            <mxPoint x="600" y="516" as="sourcePoint" />
            <mxPoint x="760" y="516" as="targetPoint" />
          </mxGeometry>
        </mxCell>
        <mxCell id="Yj_IBcFeHuNmgm66MgI8-34" value="1" style="endArrow=open;html=1;endSize=12;startArrow=diamondThin;startSize=14;startFill=0;edgeStyle=orthogonalEdgeStyle;align=left;verticalAlign=bottom;" parent="1" source="Yj_IBcFeHuNmgm66MgI8-22" target="KlxbK8RUg1pbJQgt3YLl-11" edge="1">
          <mxGeometry x="0.9371" relative="1" as="geometry">
            <mxPoint x="420" y="580" as="sourcePoint" />
            <mxPoint x="580" y="580" as="targetPoint" />
            <mxPoint as="offset" />
            <Array as="points">
              <mxPoint x="1030" y="820" />
            </Array>
          </mxGeometry>
        </mxCell>
        <mxCell id="Yj_IBcFeHuNmgm66MgI8-38" value="WriteStatement" style="swimlane;fontStyle=1;align=center;verticalAlign=top;childLayout=stackLayout;horizontal=1;startSize=26;horizontalStack=0;resizeParent=1;resizeParentMax=0;resizeLast=0;collapsible=1;marginBottom=0;" parent="1" vertex="1">
          <mxGeometry x="247" y="440" width="167" height="34" as="geometry" />
        </mxCell>
        <mxCell id="Yj_IBcFeHuNmgm66MgI8-39" value="" style="line;strokeWidth=1;fillColor=none;align=left;verticalAlign=middle;spacingTop=-1;spacingLeft=3;spacingRight=3;rotatable=0;labelPosition=right;points=[];portConstraint=eastwest;" parent="Yj_IBcFeHuNmgm66MgI8-38" vertex="1">
          <mxGeometry y="26" width="167" height="8" as="geometry" />
        </mxCell>
        <mxCell id="Yj_IBcFeHuNmgm66MgI8-40" value="ReadStatement" style="swimlane;fontStyle=1;align=center;verticalAlign=top;childLayout=stackLayout;horizontal=1;startSize=26;horizontalStack=0;resizeParent=1;resizeParentMax=0;resizeLast=0;collapsible=1;marginBottom=0;" parent="1" vertex="1">
          <mxGeometry x="423" y="440" width="167" height="34" as="geometry" />
        </mxCell>
        <mxCell id="Yj_IBcFeHuNmgm66MgI8-41" value="" style="line;strokeWidth=1;fillColor=none;align=left;verticalAlign=middle;spacingTop=-1;spacingLeft=3;spacingRight=3;rotatable=0;labelPosition=right;points=[];portConstraint=eastwest;" parent="Yj_IBcFeHuNmgm66MgI8-40" vertex="1">
          <mxGeometry y="26" width="167" height="8" as="geometry" />
        </mxCell>
        <mxCell id="Yj_IBcFeHuNmgm66MgI8-42" value="" style="endArrow=block;dashed=1;endFill=0;endSize=12;html=1;" parent="1" source="Yj_IBcFeHuNmgm66MgI8-40" target="KlxbK8RUg1pbJQgt3YLl-17" edge="1">
          <mxGeometry width="160" relative="1" as="geometry">
            <mxPoint x="430" y="410" as="sourcePoint" />
            <mxPoint x="590" y="410" as="targetPoint" />
          </mxGeometry>
        </mxCell>
        <mxCell id="Yj_IBcFeHuNmgm66MgI8-43" value="" style="endArrow=block;dashed=1;endFill=0;endSize=12;html=1;" parent="1" source="Yj_IBcFeHuNmgm66MgI8-38" target="KlxbK8RUg1pbJQgt3YLl-17" edge="1">
          <mxGeometry width="160" relative="1" as="geometry">
            <mxPoint x="310" y="390" as="sourcePoint" />
            <mxPoint x="470" y="390" as="targetPoint" />
          </mxGeometry>
        </mxCell>
        <mxCell id="Yj_IBcFeHuNmgm66MgI8-44" value="1" style="endArrow=open;html=1;endSize=12;startArrow=diamondThin;startSize=14;startFill=0;edgeStyle=orthogonalEdgeStyle;align=left;verticalAlign=bottom;" parent="1" source="Yj_IBcFeHuNmgm66MgI8-38" target="KlxbK8RUg1pbJQgt3YLl-11" edge="1">
          <mxGeometry x="0.875" y="10" relative="1" as="geometry">
            <mxPoint x="290" y="570" as="sourcePoint" />
            <mxPoint x="450" y="570" as="targetPoint" />
            <mxPoint as="offset" />
            <Array as="points">
              <mxPoint x="330" y="597" />
              <mxPoint x="400" y="597" />
            </Array>
          </mxGeometry>
        </mxCell>
        <mxCell id="Yj_IBcFeHuNmgm66MgI8-45" value="1" style="endArrow=open;html=1;endSize=12;startArrow=diamondThin;startSize=14;startFill=0;edgeStyle=orthogonalEdgeStyle;align=left;verticalAlign=bottom;" parent="1" source="Yj_IBcFeHuNmgm66MgI8-40" target="KlxbK8RUg1pbJQgt3YLl-11" edge="1">
          <mxGeometry x="0.875" y="10" relative="1" as="geometry">
            <mxPoint x="480" y="610" as="sourcePoint" />
            <mxPoint x="640" y="610" as="targetPoint" />
            <mxPoint as="offset" />
            <Array as="points">
              <mxPoint x="524" y="597" />
              <mxPoint x="470" y="597" />
            </Array>
          </mxGeometry>
        </mxCell>
        <mxCell id="Yj_IBcFeHuNmgm66MgI8-47" value="ReturnStatement" style="swimlane;fontStyle=1;align=center;verticalAlign=top;childLayout=stackLayout;horizontal=1;startSize=26;horizontalStack=0;resizeParent=1;resizeParentMax=0;resizeLast=0;collapsible=1;marginBottom=0;" parent="1" vertex="1">
          <mxGeometry x="603" y="440" width="167" height="34" as="geometry" />
        </mxCell>
        <mxCell id="Yj_IBcFeHuNmgm66MgI8-48" value="" style="line;strokeWidth=1;fillColor=none;align=left;verticalAlign=middle;spacingTop=-1;spacingLeft=3;spacingRight=3;rotatable=0;labelPosition=right;points=[];portConstraint=eastwest;" parent="Yj_IBcFeHuNmgm66MgI8-47" vertex="1">
          <mxGeometry y="26" width="167" height="8" as="geometry" />
        </mxCell>
        <mxCell id="Yj_IBcFeHuNmgm66MgI8-49" value="" style="endArrow=block;dashed=1;endFill=0;endSize=12;html=1;" parent="1" source="Yj_IBcFeHuNmgm66MgI8-47" target="KlxbK8RUg1pbJQgt3YLl-17" edge="1">
          <mxGeometry width="160" relative="1" as="geometry">
            <mxPoint x="603" y="430" as="sourcePoint" />
            <mxPoint x="562" y="320" as="targetPoint" />
          </mxGeometry>
        </mxCell>
        <mxCell id="Yj_IBcFeHuNmgm66MgI8-50" value="1" style="endArrow=open;html=1;endSize=12;startArrow=diamondThin;startSize=14;startFill=0;edgeStyle=orthogonalEdgeStyle;align=left;verticalAlign=bottom;" parent="1" source="Yj_IBcFeHuNmgm66MgI8-47" target="KlxbK8RUg1pbJQgt3YLl-11" edge="1">
          <mxGeometry x="0.8802" relative="1" as="geometry">
            <mxPoint x="590" y="580" as="sourcePoint" />
            <mxPoint x="750" y="580" as="targetPoint" />
            <mxPoint as="offset" />
            <Array as="points">
              <mxPoint x="710" y="740" />
            </Array>
          </mxGeometry>
        </mxCell>
        <mxCell id="Xgbvs4KRls7eKY-EMca--1" value="*" style="endArrow=open;html=1;endSize=12;startArrow=diamondThin;startSize=14;startFill=0;edgeStyle=orthogonalEdgeStyle;align=left;verticalAlign=bottom;" parent="1" source="Yj_IBcFeHuNmgm66MgI8-1" target="KlxbK8RUg1pbJQgt3YLl-17" edge="1">
          <mxGeometry x="0.91" relative="1" as="geometry">
            <mxPoint x="1080" y="450" as="sourcePoint" />
            <mxPoint x="537" y="240" as="targetPoint" />
            <mxPoint as="offset" />
            <Array as="points">
              <mxPoint x="850" y="280" />
            </Array>
          </mxGeometry>
        </mxCell>
        <mxCell id="Xgbvs4KRls7eKY-EMca--2" value="*" style="endArrow=open;html=1;endSize=12;startArrow=diamondThin;startSize=14;startFill=0;edgeStyle=orthogonalEdgeStyle;align=left;verticalAlign=bottom;" parent="1" source="Yj_IBcFeHuNmgm66MgI8-1" target="KlxbK8RUg1pbJQgt3YLl-17" edge="1">
          <mxGeometry x="0.91" relative="1" as="geometry">
            <mxPoint x="860" y="450" as="sourcePoint" />
            <mxPoint x="537" y="280" as="targetPoint" />
            <mxPoint as="offset" />
            <Array as="points">
              <mxPoint x="890" y="260" />
            </Array>
          </mxGeometry>
        </mxCell>
        <mxCell id="Xgbvs4KRls7eKY-EMca--3" value="FuncInvocation" style="swimlane;fontStyle=1;align=center;verticalAlign=top;childLayout=stackLayout;horizontal=1;startSize=26;horizontalStack=0;resizeParent=1;resizeParentMax=0;resizeLast=0;collapsible=1;marginBottom=0;" parent="1" vertex="1">
          <mxGeometry x="173" y="610" width="167" height="34" as="geometry" />
        </mxCell>
        <mxCell id="Xgbvs4KRls7eKY-EMca--4" value="" style="line;strokeWidth=1;fillColor=none;align=left;verticalAlign=middle;spacingTop=-1;spacingLeft=3;spacingRight=3;rotatable=0;labelPosition=right;points=[];portConstraint=eastwest;" parent="Xgbvs4KRls7eKY-EMca--3" vertex="1">
          <mxGeometry y="26" width="167" height="8" as="geometry" />
        </mxCell>
        <mxCell id="Xgbvs4KRls7eKY-EMca--5" value="" style="endArrow=block;dashed=1;endFill=0;endSize=12;html=1;" parent="1" source="Xgbvs4KRls7eKY-EMca--3" target="KlxbK8RUg1pbJQgt3YLl-17" edge="1">
          <mxGeometry width="160" relative="1" as="geometry">
            <mxPoint x="350" y="450" as="sourcePoint" />
            <mxPoint x="413" y="340" as="targetPoint" />
            <Array as="points">
              <mxPoint x="230" y="410" />
            </Array>
          </mxGeometry>
        </mxCell>
      </root>
    </mxGraphModel>
  </diagram>
  <diagram id="bk84AN6vChEhuG9X8hu6" name="Statements">
    <mxGraphModel dx="1434" dy="830" grid="0" gridSize="10" guides="1" tooltips="1" connect="1" arrows="1" fold="1" page="0" pageScale="1" pageWidth="827" pageHeight="1169" math="0" shadow="0">
      <root>
        <mxCell id="0" />
        <mxCell id="1" parent="0" />
      </root>
    </mxGraphModel>
  </diagram>
</mxfile>
